<svg width="3671" height="510" viewBox="0 0 3671 510" fill="none" xmlns="http://www.w3.org/2000/svg">
<path fill-rule="evenodd" clip-rule="evenodd" d="M51 288.38C64.33 283.04 86.33 279.04 117 276.38C117 276.38 135.44 266.43 172 261.38C173.04 261.23 179.5 253.38 208 248.38C224 248.38 229 244.5 238 253.38C241.53 239.85 257.13 236.8 267 238.38C273.9 239.48 278.3 244.31 279 246.38C283 258.38 300 251.38 309 258.38C286 264.38 286 265.38 277 269.38C261 283.38 246 300.38 230 300.38C214 304.38 197.17 305.71 179.5 304.38C178.5 308.38 176 311.04 172 312.38C166 314.38 171 303.38 168 300.38C165 297.38 165 310.38 151 318.38C150 304.38 146 308.38 146 300.38C146 292.38 150 313.38 129 318.38C115 321.71 97.33 322.38 76 320.38C102 311.71 117.33 304.04 122 297.38C117 297.38 104 296.38 101 288.38C87 283.88 70.33 283.88 51 288.38Z" fill="black" fill-opacity="0.81"/>
<path fill-rule="evenodd" clip-rule="evenodd" d="M639 273C639 275.07 629 276 623 278C614 279 615 286 609 285C603 284 604 293 590 299C592 310 611 308 626 318C655 348.62 644 337 663 381C677 409 681 411 690 438C689 439 679 437 676 431C675 436 671 432 672 438C667 437 664 430 660 427C656 426 661 434 658 435C654 435 653 427 649 427C645 428 650 433 647 434C614 404 604 413 604 398C596 408 594 396 585 401C581 396 579 391 583 384C582 379 576 389 572 387C570.67 381 573 374.33 579 367C572.33 373.67 565 377 557 377C558 367 556 370.5 562 361C556 368.5 549 369 543 367C538.57 364.9 547 359 545 355.5C537 355.5 522.24 355.2 521 352C517.74 343.6 529 333 525 327C521.88 322.33 513 336 510 324C510 312 505.33 307 496 309C487.33 307.67 476.67 307.67 464 309C445 311 437 304 406 304C416 299 415 291 433 291C412 288 423 281 388 278C418 270 420 278 442 285C510 278 464 270 536 263C550 261 572 259 594 265C599 263 600 260 609 259C617 259 621.67 262.67 623 270C633.67 270.72 639 271.72 639 273Z" fill="black" fill-opacity="0.81"/>
<path fill-rule="evenodd" clip-rule="evenodd" d="M729 299.03C761 285.03 785 273.03 819 259.03C839 253.03 856 254.03 875 251.03C903 251.03 892 243.03 930 248.03C938 247.03 940.95 240.53 949 241.03C957.67 241.03 962.33 243.69 963 249.03L989 254.03L965 259.03C962.33 264.36 957 267.36 949 268.03C937 280.03 938 286.03 920 289.03C942 302.03 943 306.03 984 327.03C997 338.03 997 342.03 1001 358.03C1005 374.01 1015.06 383.77 1022 393.03C1048 439.03 1045 452.03 1067 473.03C1056 472.03 1044 465.03 1039 460.03C1035 459.03 1036 465.03 1036 468.03C1030 466.03 1028 453.03 1020 455.03C1016.54 455.03 1024 460.03 1020 468.03C1007 463.03 1006 461.03 1004 455.03C1001 451.03 997 444.03 1001 443.03C999 451.03 1001 455.03 995 455.03C990 445.03 988 452.03 984 443.03C976 429.03 967 431.03 967 414.03C963 414.03 960 418.03 957 423.03C954 419.03 957 414.03 956 411.03C954 411.69 951.67 412.69 949 414.03C947 401.36 947 392.36 949 387.03C941 389.03 945 393.03 934 397.03C929 391.03 930 385.03 932 376.03C927 382.03 927 373.03 920 378.03C911 369.03 910 360.03 895 360.03C890 348.03 892 340.03 884 338.03C880.77 338.89 880 348.03 878 345.03C876 342.03 876 335.03 873 333.03C871 330.03 867 339.03 864 336.03C864 331.03 862 325.03 858 322.03C855 318.03 853 322.03 848 325.03C846 320.03 846 316.03 847 311.03C843 310.03 833 316.03 835 309.03C835 302.03 831 305.03 827 305.03C822 305.03 828 300.03 826 299.03C821 297.03 813 301.03 805 305.03C800 303.03 809 295.03 805 295.03C774 294.03 767 302.03 729 299.03Z" fill="black" fill-opacity="0.81"/>
<path fill-rule="evenodd" clip-rule="evenodd" d="M1367 254.1L1349 251.1C1347 245.1 1343.67 241.75 1339 241.1C1325 240.1 1322 248.1 1317 251.1C1296 248.1 1298 250.1 1282 251.1C1252 246.1 1246 255.1 1232 258.1C1196 263.1 1199 267.1 1184 274.1C1150 292.1 1143 293.1 1109 303.1C1115.67 303.75 1123 303.1 1131 301.1C1116.33 305.1 1110 307.42 1112 308.1C1143 303.1 1141.02 312.33 1164 308.1C1175 305.1 1174 299.1 1177 296.1C1179 303.1 1178 303.1 1179 309.1C1195 306.1 1200 307.1 1209 307.1C1212 311.1 1205.34 315.7 1209 317.1C1213 315.75 1218.33 314.42 1225 313.1C1221 317.75 1219.33 321.42 1220 324.1C1235 326.1 1232 328.1 1244 325.1C1233 329.1 1233 329.1 1228 335.1C1244 338.1 1242 336.1 1252 337.1C1248 341.1 1249 345.1 1251 348.1C1257 345.1 1260.53 343.6 1263 345.1C1260 348.54 1258 352.1 1261 354.1C1271 352.1 1273.4 348.82 1276 352.1C1273 360.1 1276 363.1 1277 374.1C1282 374.1 1287 372.1 1292 370.1C1293 378.1 1289 378.1 1289 386.1C1295 389.1 1302 383.1 1306 385.1C1299 389.1 1299 391.1 1298 394.1C1305 397.1 1304 396.1 1312 394.1C1306.67 398.1 1305 401.75 1307 405.1C1312.33 401.75 1315.33 401.75 1316 405.1C1314 411.1 1316 412.1 1317 420.1C1327 415.1 1327 422.1 1338 425.1C1343.97 428.37 1344.4 435.64 1349 439.1C1358 445.84 1369 448.1 1368 448.1C1367 448.1 1359 437.1 1363 438.1C1366.33 442.1 1370.67 446.42 1376 451.1C1376 443.1 1375.33 437.42 1374 434.1C1383 448.1 1386 446.1 1402 457.1C1405 444.1 1396 439.1 1387 429.1C1406 451.1 1406 449.1 1417 453.1C1393 423.1 1397 427.1 1388 400.1C1374 374.1 1364 339.1 1349 325.1C1331 313.1 1330 308.1 1311 299.1C1307.67 294.42 1303.67 291.1 1299 289.1C1311 287.1 1320.33 283.42 1327 278.1C1329 273.1 1334 273.1 1338 269.1C1344 267.75 1347.67 264.75 1349 260.1L1367 254.1Z" fill="black" fill-opacity="0.81"/>
<path fill-rule="evenodd" clip-rule="evenodd" d="M1751 256C1740 255 1739 252 1727 250C1724 244 1723 245 1717 243C1703 243 1696 250 1688 255C1664 252 1657 254 1644 257C1598 269 1601 269 1574 280C1528 307 1535 310 1516 320C1539 326 1547 317 1563 313C1556.33 315.67 1554.33 319 1557 323C1563.67 320.33 1568 319.33 1570 320C1565 322 1560.3 330.57 1565 330C1592 328 1595.7 315.73 1611 315C1607 320 1605 323 1607 328C1619 325 1618 326 1625 324C1623 330 1622 330 1625 339C1633.5 341 1638 334 1638 334C1642 338 1638 345 1638 354C1649 354 1649 356 1653 354C1651 362 1655 362 1658 368C1662 360 1665 363 1672 356C1670 369 1677 368 1678 377C1688 368 1689 366 1691 356C1687 371 1693 373 1696 384C1700 377 1703 377 1704 368C1705 373 1707.98 375.87 1709 374C1712 364 1712.32 365.88 1713 368C1710 381 1715 384 1718 395C1725 383 1723 377 1723 376C1725 391 1738 384 1751 409C1755 395 1735 371 1728 336C1724 313 1725 308 1714 293C1711 286 1704 285 1701 286C1709 282 1708 278 1713 271C1728 269 1724 266 1728 261C1727 261 1733 257 1751 256Z" fill="black" fill-opacity="0.81"/>
<path fill-rule="evenodd" clip-rule="evenodd" d="M2119.66 270.36C2119.66 267.36 2108.66 264.36 2099.66 264.36C2098.32 261.69 2095.99 259.36 2092.66 257.36C2087.32 254.69 2080.32 254.69 2071.66 257.36C2063.66 258.36 2055.66 244.36 2063.66 231.36C2070.66 228.36 2073.66 222.36 2074.66 217.36C2066.66 213.36 2063.66 212.36 2052.66 213.36C1987.66 217.36 1967.66 241.36 1942.66 263.36C1934.66 270.36 1952.66 268.36 1960.66 268.36C1918.66 268.36 1882.66 309.36 1888.66 305.36C1894.66 301.36 1904.66 311.36 1923.66 294.36C1925.66 293.36 1916.66 299.36 1908.66 309.36C1929.66 306.36 1929.66 303.36 1947.66 305.36C1945.66 312.36 1951.26 312.58 1956.66 313.36C1960.99 313.98 1965.86 312.92 1971.66 313.36C1984.19 314.76 1984.66 312.36 1989.66 312.36C1995.66 312.36 1995.01 312.96 1998.66 312.36C2007.66 310.36 2005.66 309.36 2008.66 305.36C2005.66 313.36 2009.66 316.36 2014.66 326.36C2021.66 320.36 2020.66 312.36 2020.66 307.36C2020.66 320.36 2019.66 316.36 2022.66 324.36C2028.66 319.36 2028.66 320.36 2030.66 312.36C2027.66 322.36 2029.66 329.36 2033.66 340.36C2038.66 340.36 2040.5 335.7 2043.66 337.36C2043.66 342.36 2043.66 340.36 2049.66 350.36C2054.66 345.36 2051.66 353.36 2056.66 342.36C2055.66 352.36 2060.66 346.36 2066.66 360.36C2071.66 350.36 2069.66 346.36 2065.66 337.36C2071.66 350.36 2073.66 349.36 2078.66 356.36C2080.66 337.36 2077.66 333.36 2071.66 320.36C2074.66 301.36 2065.66 300.36 2066.66 286.86C2074.66 276.36 2081.66 288.86 2090.66 280.36C2097.66 279.36 2094.66 276.36 2099.66 273.36C2107.66 268.36 2118.66 274.36 2119.66 270.36Z" fill="black" fill-opacity="0.81"/>
<path fill-rule="evenodd" clip-rule="evenodd" d="M2485 278.84C2479 275.84 2478 277.84 2469 275.84C2470 270.84 2464.34 265.84 2458 265.84C2448.84 265.84 2448.5 271.04 2437 273.84C2428 276.04 2424.3 276.87 2419 271.84C2395 256.84 2408 252.84 2387 227.84C2378 220.84 2375 216.84 2383 206.84C2396 192.84 2400 184.84 2400 174.84C2396 167.84 2315 171.84 2287 208.84C2292.06 209.99 2303.8 202.14 2307.65 202.84C2312 203.84 2289 215.84 2298 213.84C2307 211.84 2313 206.84 2319 206.84C2321.67 206.79 2317 208.84 2316 213.84C2319.78 214.74 2325.8 211.99 2332 210.84C2335.52 210.19 2339.9 211.18 2342 210.84C2338 213.84 2332 211.84 2322 227.84C2328 233.34 2336 226.34 2342 226.34C2339 231.84 2331 228.84 2327 246.84C2329 250.84 2338 240.84 2336 244.84C2336 248.84 2329 246.84 2327 262.84C2333 262.84 2335 255.84 2336 260.84C2334 263.84 2331 263.84 2331 269.84C2334 272.84 2340 265.84 2342 265.84C2341 267.84 2336 267.84 2336 275.84C2298 284.84 2287 293.84 2268 305.84C2275 310.74 2291 300.84 2293 304.84C2291.54 308.06 2282 310.74 2265 315.84C2282 317.84 2296 317.84 2307.65 310.74C2318 311.84 2326.22 308.84 2329 308.84C2333 314.84 2329 321.84 2336 323.84C2339 318.84 2344 311.84 2345 308.84C2348 306.84 2340 319.84 2348 321.84C2357 321.84 2367 328.84 2384 328.84C2402 328.84 2406 322.84 2426 315.84C2438 314.84 2446 310.84 2451 297.84C2454 289.84 2460 293.84 2469 284.84C2471 282.84 2481 281.84 2485 278.84Z" fill="black" fill-opacity="0.81"/>
<path fill-rule="evenodd" clip-rule="evenodd" d="M2859 275.74C2858.48 273.39 2851 272.74 2839 270.74C2832.38 267.64 2831.32 261.74 2825 261.74C2812 261.74 2817.17 267.9 2804 270.74C2796.3 272.41 2789 272.74 2784 270.74C2779 268.74 2777.68 267.04 2774 264.74C2754.8 252.84 2763.83 264.99 2754.83 244.74C2744.29 232.74 2744.23 220.19 2748 202.74C2748.97 198.24 2750.27 194.59 2752 191.74C2758 181.91 2764.67 161.14 2763 146.74C2761.6 134.58 2752 132.74 2736 129.74C2715 125.74 2703 124.74 2678 127.74C2669 135.74 2657 132.74 2645 148.74C2654 147.74 2652 145.74 2659 151.74C2667 147.74 2674.48 150.44 2675 150.74C2682.16 154.87 2671.46 154.47 2676 156.74C2682 156.74 2678 160.74 2676 165.74C2681 165.24 2684 164.74 2682 169.74C2686.4 172.96 2690.36 166.5 2691 170.74C2691.86 176.5 2679.3 180.14 2682 187.74C2700 190.74 2702 192.74 2704 194.74C2700 195.74 2707 196.74 2678 205.74C2681 215.74 2692 211.74 2693 221.74C2693 228.74 2684 225.74 2681 238.74C2693 240.74 2690 244.74 2704 244.74C2699 244.74 2686 248.74 2678 256.74C2687 258.74 2684 262.74 2692 263.74C2699 266.74 2698 267.1 2696 270.74C2689.5 282.6 2691 285.74 2676 293.74C2661 301.74 2649.7 309.52 2641 315.74C2636.37 319.06 2633.52 323.97 2630 327.74C2642 325.74 2642 324.74 2645 325.74C2647 329.74 2646 322.74 2645 336.74C2651 331.74 2661 324.74 2667 320.74C2672 320.74 2680 317.74 2684 320.74C2689 320.74 2684 313.74 2684 311.78C2684 309.82 2687.48 317.58 2689 315.74C2694 309.74 2693 306.74 2692 301.74C2696 304.74 2693 312.64 2698 313.74C2717 319.74 2719 318.74 2740 312.74C2741.2 312.67 2742.95 311.82 2744.3 311.78C2745.5 313.2 2745 314.78 2748 315.74C2749.57 313.39 2752.93 312.68 2754.83 312.64C2755.35 312.64 2754.59 311.71 2754.83 311.78C2764.83 314.78 2772 315.74 2787 312.74C2800 304.74 2811 307.74 2822 295.74C2836 289.74 2836 285.74 2839 279.74C2843 276.74 2848 279.74 2859 275.74Z" fill="black" fill-opacity="0.81"/>
<path fill-rule="evenodd" clip-rule="evenodd" d="M3243 286C3235 283 3236 284 3226 282C3218.4 278.72 3221 271 3205 269C3188.9 270.03 3190 283 3174 282C3163.57 281.35 3161 275 3153 271C3145 267 3140 266 3134 259C3121 217 3132.73 249.44 3131 200C3130.73 192.44 3125 156 3130 146C3138 143 3134.84 132.2 3130 124C3098 90 3089.78 65.97 3070 45C3066 44 3075 57 3068 52C3059.2 46.92 3061 38 3045 30C3046 35 3049 42 3047 45C3042 42 3033 22 3027 22C3028 26 3035 33 3035 45C3035 49 3021 39 3026 44C3031 49 3033 57 3035 63C3042.25 76.18 3057 86 3057 85C3054 84 3040 73 3031 74C3033 79 3039 81 3041 91C3039 93 3041 94 3033 91C3037 110 3047 119 3068 132C3070.6 136.24 3056.9 127.82 3054 131C3051.4 133.82 3055.67 139.6 3059 146C3068.17 163.6 3077.32 164.92 3079 176C3078 180 3069.23 174.74 3065 178C3062.73 179.74 3069.75 183.74 3069 188C3068.25 192.24 3059.78 189.68 3061 194C3063.48 196.98 3059 206 3060 211C3061 216 3064 217 3064 222C3064 227 3071 220 3072 228C3077 232 3071 232 3064 240C3069 245 3074 244 3072 254C3070 264 3065 260 3060 266C3055 273 3057 277 3050 283C3041 291 3035 287 3019 299C3006 306 3005 301 2989 312C3007 314 3025 324 3057 317C3062 319 3052 322 3055 324C3069 325 3071 327 3078 324C3074 327 3067.38 332.7 3071 333C3079.53 333.74 3094.38 332.05 3101 333C3109.4 334.2 3113.75 338 3128 338C3135.7 338 3144.25 329.82 3149 331C3156.3 332.8 3155 333.93 3166 331C3185.33 325.85 3190 322 3205 312C3213 300 3218 303 3225 291C3236 289 3243 289 3243 286Z" fill="black" fill-opacity="0.81"/>
<path fill-rule="evenodd" clip-rule="evenodd" d="M3595.2 274C3595.2 271.44 3590.2 270 3582.2 267C3577.95 263.87 3582.2 259 3572.2 257C3555.2 257 3561.17 265.98 3551.2 269C3541.2 268 3542.2 267 3530.2 270C3526.05 271.04 3526.3 259.2 3524.2 257C3521.23 253.94 3519.2 254 3514.2 249C3511.2 238 3520.2 225 3517.2 204C3515.86 194.68 3512.52 182.44 3508.2 171C3505.75 157.9 3506.2 161 3495.2 148C3474.2 120 3458.2 111 3448.2 81C3443.24 76.44 3447.52 93.44 3443.2 92C3435.52 89.44 3427.8 73 3424.2 73C3421.3 73 3431.7 90.9 3428.2 96C3425.2 100.4 3411.2 88.33 3411.2 91C3411.2 94.33 3419.2 107 3426.2 110C3422.2 114 3416.7 105.4 3415.2 109C3422.2 118 3416.2 120 3421.2 133C3426.97 145.05 3432.2 141 3437.2 151C3433.58 155.17 3412.7 144.2 3411.2 148C3410.18 150.53 3420.9 150.7 3428.2 158C3434.2 164 3430 171.48 3434.2 174C3439.2 177 3436.2 180 3442.2 187C3448.2 194 3452.2 185 3450.2 195C3449.26 199.66 3446.2 199.34 3446.2 204C3446.2 209.34 3454.2 203 3452.2 209C3452.2 211.57 3448.2 213 3446.2 217C3446.2 217.72 3453.78 215.53 3454.2 218C3455.28 224.53 3446.97 229.8 3450.2 235C3453.47 240.3 3462.2 239 3467.2 238C3462.2 242 3454.2 241.95 3454.2 247C3454.2 256.45 3464.2 260 3458.2 265C3460.2 270 3453.2 274 3454.2 278C3455.2 282 3459.37 286.47 3464.2 288C3467.44 289.03 3473.2 290 3470.2 291C3464.2 293 3463.2 290 3458.2 294C3453.95 294 3456.2 288 3448.2 290C3424.2 294 3388.2 310 3375.2 324C3373.2 327 3387.2 321 3396.2 320C3388.2 323 3376.2 327 3391.2 326C3402.2 327 3419.2 326 3448.2 321C3469.66 320.34 3465.2 328 3487.2 323C3498.2 326 3515.2 329 3530.2 318C3544.2 316 3545.78 308.15 3563.2 295C3569.2 293 3574.2 284 3577.2 278C3585 274.47 3589.2 277 3595.2 274Z" fill="black" fill-opacity="0.81"/>
</svg>
